<?xml version="1.0" standalone="no"?>
<!DOCTYPE svg PUBLIC "-//W3C//DTD SVG 20010904//EN"
 "http://www.w3.org/TR/2001/REC-SVG-20010904/DTD/svg10.dtd">
<svg version="1.0" xmlns="http://www.w3.org/2000/svg"
 width="2500.000000pt" height="2500.000000pt" viewBox="0 0 2500.000000 2500.000000"
 preserveAspectRatio="xMidYMid meet">

<g transform="translate(0.000000,2500.000000) scale(0.100000,-0.100000)"
fill="#000000" stroke="none">
<path d="M2090 24989 c-536 -39 -1044 -273 -1426 -657 -360 -361 -577 -807
-646 -1327 -19 -149 -19 -20861 0 -21010 69 -521 287 -968 648 -1329 361 -361
790 -570 1329 -648 135 -20 20863 -19 21010 0 741 99 1350 510 1713 1157 128
229 211 480 259 785 17 110 18 523 18 10530 0 8599 -2 10432 -13 10515 -86
642 -406 1187 -917 1559 -299 218 -614 346 -1020 414 -93 15 -839 17 -10475
18 -5706 1 -10422 -2 -10480 -7z m3786 -2749 c358 -28 649 -109 979 -270 747
-364 1289 -1078 1440 -1895 64 -349 59 -716 -15 -1060 -178 -821 -746 -1520
-1518 -1865 -214 -96 -464 -168 -719 -207 -137 -21 -564 -24 -698 -5 -419 60
-817 210 -1145 430 -584 393 -992 994 -1130 1668 -57 274 -71 628 -36 884 67
497 262 952 572 1340 88 109 285 306 394 394 537 429 1207 639 1876 586z
m12056 -6235 c86 -3 226 -12 311 -20 2034 -195 3298 -1310 3826 -3375 146
-572 237 -1220 281 -2000 27 -485 31 -1099 28 -4185 l-3 -3180 -22 -65 c-63
-186 -205 -329 -395 -398 l-73 -27 -1610 0 c-1535 0 -1613 1 -1670 18 -84 26
-181 79 -242 132 -64 56 -143 172 -174 256 l-24 64 -6 3365 c-4 2535 -8 3393
-17 3480 -34 323 -83 615 -133 800 -256 947 -798 1462 -1660 1576 -149 20
-492 22 -624 5 -572 -75 -1018 -332 -1356 -780 -280 -372 -486 -887 -593
-1481 -66 -368 -60 -38 -66 -3665 -4 -2711 -8 -3297 -19 -3330 -67 -201 -221
-356 -416 -418 l-70 -22 -1555 0 c-1481 0 -1558 1 -1615 18 -198 61 -354 211
-416 399 l-24 73 0 6040 0 6040 24 74 c30 91 104 205 174 266 29 25 88 64 132
86 149 74 49 70 1758 67 1463 -3 1534 -4 1587 -22 177 -59 301 -165 378 -321
57 -115 56 -98 62 -709 l5 -570 29 45 c49 76 157 220 242 324 765 940 1824
1399 3334 1444 135 4 292 6 350 5 58 -2 176 -6 262 -9z m-10657 -217 c114 -39
196 -92 280 -180 54 -56 84 -99 114 -160 78 -163 71 449 71 -6163 0 -6615 7
-5999 -72 -6165 -33 -70 -56 -100 -127 -170 -92 -91 -158 -132 -276 -172 l-70
-23 -1474 -3 c-1673 -3 -1578 -7 -1741 74 -169 84 -299 245 -345 429 -13 52
-15 752 -15 6030 0 5292 2 5978 15 6030 63 247 265 439 515 490 52 11 355 13
1555 12 l1490 -2 80 -27z"/>
</g>
</svg>
